<svg version="1.1" id="Layer_1" xmlns="http://www.w3.org/2000/svg" xmlns:xlink="http://www.w3.org/1999/xlink" x="0px" y="0px"
	 width="100%" viewBox="0 0 263 117" enable-background="new 0 0 263 117" xml:space="preserve">
<path fill="#FFFFFF" opacity="1.000000" stroke="none" 
	d="
M264.000000,71.000000 
	C264.000000,86.666687 264.000000,102.333374 264.000000,118.000000 
	C261.958740,118.000000 259.977295,118.000000 257.622009,117.623711 
	C258.058136,112.275635 258.868073,107.303848 259.732086,102.000008 
	C257.052979,102.000008 255.735016,101.997673 254.417053,102.000420 
	C248.893478,102.011940 247.165375,103.870453 248.037064,109.177002 
	C248.524658,112.145386 249.335068,115.060745 250.000000,118.000000 
	C167.000000,118.000000 84.000000,118.000000 1.000000,118.000000 
	C1.000000,115.305443 1.000000,112.643768 1.364169,109.495186 
	C2.639041,109.653755 3.605866,110.233528 4.451177,110.955566 
	C9.278181,115.078674 13.113571,114.632324 16.955406,111.471100 
	C20.947081,108.186584 21.120724,103.171646 17.843737,99.345711 
	C15.142537,96.192017 9.923609,94.533394 4.902123,98.494705 
	C3.856378,99.319664 2.313680,99.514679 1.000001,100.000000 
	C1.000000,96.307091 1.000000,92.614182 1.468657,88.460632 
	C14.253702,88.000000 26.570093,88.004723 38.886478,87.998589 
	C49.995506,87.993050 58.900009,80.825981 62.494408,69.012306 
	C65.308411,59.763550 60.779099,48.080624 52.213623,42.494030 
	C60.223007,33.954548 61.306488,20.431839 54.471813,10.592916 
	C50.915272,5.473067 45.720947,3.842343 41.000000,1.000000 
	C60.354229,1.000000 79.708458,1.000000 99.391647,1.363333 
	C74.806099,6.559391 60.608025,32.522774 66.642403,55.100655 
	C70.894989,71.011879 80.842682,81.913315 96.949928,86.416306 
	C106.932060,89.206932 116.913414,89.264046 126.375000,84.195847 
	C128.984924,82.797813 131.452637,81.134285 133.985596,79.592575 
	C131.934845,77.395203 129.884094,75.197830 127.903091,72.655457 
	C126.975418,71.874161 125.773781,70.851128 125.019608,71.113655 
	C122.914513,71.846397 120.994751,73.111633 118.670921,74.094513 
	C117.893639,74.070457 117.447250,74.118553 116.705612,74.147919 
	C115.940819,74.475014 115.471283,74.820831 114.547501,75.093323 
	C109.711113,75.024338 105.222420,75.642769 100.969070,74.904785 
	C92.203728,73.383942 86.664902,66.618515 81.927727,60.120434 
	C75.970932,51.949379 76.496490,42.388630 80.390923,33.163872 
	C83.247459,26.397604 87.860329,20.967638 94.235641,17.411442 
	C103.611626,12.181454 113.235771,11.818335 122.972481,16.885126 
	C124.295799,17.573757 126.848564,17.604921 127.901878,16.768747 
	C130.460052,14.737953 132.470444,12.017122 135.585648,8.606242 
	C129.484909,5.967515 123.742455,3.483758 118.000000,1.000001 
	C131.354233,1.000000 144.708450,1.000000 158.355988,1.351059 
	C148.040054,3.364708 139.747742,8.646311 132.604630,16.711609 
	C119.573723,31.424818 119.108437,58.804855 134.314697,74.898705 
	C151.606171,93.199493 184.297287,92.781616 200.457153,72.253685 
	C215.428772,53.235188 213.162643,24.093727 191.933716,9.164750 
	C186.653290,5.451360 180.014450,3.669614 174.000000,1.000002 
	C191.354233,1.000000 208.708450,1.000000 226.437225,1.342541 
	C226.141769,2.135074 225.521057,2.696379 224.794281,3.018130 
	C215.820480,6.990963 211.101349,14.128489 211.142944,23.672100 
	C211.185104,33.346294 216.727127,39.927517 225.456192,43.780750 
	C231.799896,46.581020 238.323380,48.996075 244.559204,52.011909 
	C249.748047,54.521404 252.991394,59.153019 250.979218,64.900497 
	C247.418320,75.071754 232.065796,78.721176 223.831345,71.339844 
	C218.394165,66.465988 213.707169,66.631210 207.893051,72.067451 
	C209.847946,74.792305 211.471649,77.915657 213.865311,80.249207 
	C227.126785,93.177650 253.448776,89.978088 261.390045,73.254120 
	C261.841248,72.303894 263.111145,71.742409 264.000000,71.000000 
M97.155121,110.606041 
	C97.936378,111.010864 98.717644,111.415680 99.928154,112.358665 
	C107.023468,113.336548 102.765816,108.544563 103.032814,106.137108 
	C103.335762,103.405396 102.250778,101.239296 99.228447,102.127068 
	C96.991982,102.784012 95.095932,104.599785 93.048225,105.899300 
	C94.374771,107.246948 95.701324,108.594597 97.155121,110.606041 
M162.005997,108.330521 
	C163.577744,112.287842 169.268616,115.581345 171.885956,113.012909 
	C174.133759,110.807083 173.857849,106.029503 174.732834,102.237915 
	C163.650085,101.674843 163.330093,101.825172 162.005997,108.330521 
M234.999466,107.766182 
	C235.028442,113.151260 235.028442,113.151260 238.908493,112.210678 
	C239.206528,101.935081 238.347336,101.067665 229.224426,102.547203 
	C229.224426,105.937531 229.224426,109.340034 229.224426,114.254570 
	C230.700424,112.582588 231.703979,111.939590 231.911362,111.099953 
	C232.258698,109.693665 231.718613,108.005173 232.248108,106.722893 
	C232.903885,105.134796 234.298843,103.442871 234.999466,107.766182 
M29.001026,104.682236 
	C29.000914,106.514114 28.810963,108.374054 29.075876,110.166771 
	C29.221724,111.153748 30.132395,112.027695 30.698250,112.952606 
	C31.131863,112.054321 31.670670,111.190247 31.976311,110.250343 
	C32.543411,108.506409 32.974335,106.718193 33.461964,104.948425 
	C33.923691,105.096222 34.385414,105.244026 34.847141,105.391830 
	C34.958298,107.833176 35.069454,110.274513 35.181263,112.730232 
	C36.560471,112.730232 37.630211,112.730232 38.983498,112.730232 
	C38.983498,110.505638 39.396313,108.411606 38.862564,106.595810 
	C38.369804,104.919464 37.016979,102.453049 35.766373,102.274757 
	C33.627789,101.969887 31.273132,103.180641 29.001026,104.682236 
M199.476349,102.001732 
	C198.653046,102.683228 197.191589,103.303596 197.119446,104.057030 
	C196.841049,106.964005 197.006454,109.913475 197.006454,112.847107 
	C197.595291,113.017509 198.184143,113.187904 198.772980,113.358307 
	C199.636459,110.519279 200.499939,107.680252 201.363434,104.841225 
	C201.724899,104.964264 202.086380,105.087296 202.447861,105.210335 
	C202.979431,107.888649 203.511002,110.566963 204.042572,113.245277 
	C204.514771,113.109833 204.986954,112.974380 205.459137,112.838936 
	C207.094971,103.698456 206.533051,102.496948 199.476349,102.001732 
M77.998810,110.460594 
	C78.438286,108.596230 78.877754,106.731865 79.317230,104.867500 
	C79.800339,104.976509 80.283455,105.085526 80.766563,105.194542 
	C80.931236,107.760345 81.095901,110.326149 81.318169,113.789406 
	C85.589005,111.415817 84.181816,107.791878 83.789833,105.477264 
	C82.958969,100.571121 78.727394,102.230316 75.006577,102.054710 
	C75.006577,105.242302 74.943420,108.180916 75.057373,111.112633 
	C75.081512,111.733681 75.752708,112.329567 76.125793,112.937050 
	C76.746971,112.408737 77.368149,111.880424 77.998810,110.460594 
M135.000000,105.575073 
	C135.802307,102.870056 136.604614,100.165039 137.459290,97.283447 
	C134.649185,97.283447 131.425934,97.283447 128.202682,97.283447 
	C128.031815,97.625488 127.860954,97.967529 127.690086,98.309578 
	C129.107635,99.201538 130.525177,100.093498 131.344391,100.608986 
	C133.318283,104.819717 130.028366,109.644211 135.000000,112.843758 
	C135.000000,110.732094 135.000000,108.620422 135.000000,105.575073 
M52.000000,102.613251 
	C51.984348,97.191917 51.984348,97.191917 48.002129,97.562859 
	C48.002129,101.818443 47.815624,106.120689 48.131672,110.385704 
	C48.211903,111.468414 49.891029,112.432632 50.835480,113.451302 
	C51.223652,113.117867 51.611828,112.784431 52.000000,112.450996 
	C52.000000,109.488281 52.000000,106.525558 52.000000,102.613251 
M147.067902,102.876129 
	C147.067902,106.171608 147.067902,109.467079 147.067902,112.762558 
	C147.485245,112.920967 147.902588,113.079376 148.319916,113.237785 
	C149.928238,109.559586 151.536545,105.881393 153.177216,102.129189 
	C151.559280,102.129189 149.570175,102.129189 147.067902,102.876129 
M184.001923,104.059654 
	C184.001923,106.987984 184.001923,109.916313 184.001923,113.026741 
	C187.746979,111.743767 188.149231,104.990532 185.244598,100.541405 
	C184.824173,101.455292 184.421219,102.331207 184.001923,104.059654 
M62.000004,108.558182 
	C62.000225,109.050758 61.856426,109.602386 62.029343,110.024162 
	C62.445293,111.038788 63.009663,111.992569 63.514156,112.970894 
	C64.009216,111.981956 64.932487,110.986008 64.916443,110.005432 
	C64.873863,107.402596 64.425735,104.806396 64.138931,102.207558 
	C63.639381,102.209381 63.139832,102.211212 62.640282,102.213043 
	C62.426853,104.032112 62.213428,105.851181 62.000004,108.558182 
M216.023544,105.155739 
	C216.236969,107.735077 216.450394,110.314423 216.663818,112.893768 
	C217.290451,112.823517 218.453888,112.799843 218.464615,112.676155 
	C218.690308,110.075142 218.821503,107.463486 218.867981,104.852074 
	C218.874847,104.466400 218.356567,103.743706 218.087433,103.746620 
	C217.459137,103.753433 216.834610,104.106865 216.023544,105.155739 
z"/>
<path fill="#253B74" opacity="1.000000" stroke="none" 
	d="
M40.531342,1.000000 
	C45.720947,3.842343 50.915272,5.473067 54.471813,10.592916 
	C61.306488,20.431839 60.223007,33.954548 52.213623,42.494030 
	C60.779099,48.080624 65.308411,59.763550 62.494408,69.012306 
	C58.900009,80.825981 49.995506,87.993050 38.886478,87.998589 
	C26.570093,88.004723 14.253702,88.000000 1.468657,88.000000 
	C1.000000,59.100250 1.000000,30.200502 1.000000,1.000000 
	C14.019351,1.000000 27.041018,1.000000 40.531342,1.000000 
M38.877453,50.025818 
	C30.652191,50.025818 22.426931,50.025818 14.320150,50.025818 
	C14.320150,58.698009 14.320150,66.739098 14.320150,74.998909 
	C22.917850,74.998909 31.219818,75.345146 39.462273,74.796814 
	C42.078300,74.622772 45.173904,72.604279 46.951450,70.501251 
	C53.444687,62.819061 50.166321,54.069450 38.877453,50.025818 
M45.804890,21.330692 
	C42.925388,18.889296 40.278847,14.781976 37.119720,14.340211 
	C29.676790,13.299409 21.989435,14.006506 14.229537,14.006506 
	C14.229537,21.837444 14.229537,29.213228 14.229537,36.992195 
	C22.046444,36.992195 29.643854,37.098656 37.233215,36.899097 
	C38.687641,36.860855 40.214520,35.775379 41.529011,34.903286 
	C46.199829,31.804453 46.355267,27.051165 45.804890,21.330692 
z"/>
<path fill="#91BF40" opacity="1.000000" stroke="none" 
	d="
M173.533875,1.000002 
	C180.014450,3.669614 186.653290,5.451360 191.933716,9.164750 
	C213.162643,24.093727 215.428772,53.235188 200.457153,72.253685 
	C184.297287,92.781616 151.606171,93.199493 134.314697,74.898705 
	C119.108437,58.804855 119.573723,31.424818 132.604630,16.711609 
	C139.747742,8.646311 148.040054,3.364708 158.824646,1.351059 
	C163.689255,1.000000 168.378510,1.000000 173.533875,1.000002 
M177.408859,15.839662 
	C176.156967,15.517594 174.905411,15.194270 173.653152,14.873658 
	C161.408524,11.738720 151.057083,15.416646 143.049591,24.655001 
	C135.833771,32.979984 133.337021,42.845398 136.889496,53.756481 
	C142.593384,71.275475 160.224609,79.589066 177.681473,73.136147 
	C193.333817,67.350266 200.475983,50.248409 195.892670,35.357368 
	C193.110397,26.317867 187.015747,19.790703 177.408859,15.839662 
z"/>
<path fill="#253B74" opacity="1.000000" stroke="none" 
	d="
M264.000000,70.532394 
	C263.111145,71.742409 261.841248,72.303894 261.390045,73.254120 
	C253.448776,89.978088 227.126785,93.177650 213.865311,80.249207 
	C211.471649,77.915657 209.847946,74.792305 207.893051,72.067451 
	C213.707169,66.631210 218.394165,66.465988 223.831345,71.339844 
	C232.065796,78.721176 247.418320,75.071754 250.979218,64.900497 
	C252.991394,59.153019 249.748047,54.521404 244.559204,52.011909 
	C238.323380,48.996075 231.799896,46.581020 225.456192,43.780750 
	C216.727127,39.927517 211.185104,33.346294 211.142944,23.672100 
	C211.101349,14.128489 215.820480,6.990963 224.794281,3.018130 
	C225.521057,2.696379 226.141769,2.135074 226.905884,1.342541 
	C232.022095,1.000000 237.044189,1.000000 242.656479,1.350822 
	C247.736389,4.207744 252.368378,6.499460 256.639923,9.334321 
	C258.169128,10.349201 258.827576,12.676147 259.883453,14.404251 
	C257.503510,15.602787 255.119339,17.776941 252.744598,17.766703 
	C249.349167,17.752064 245.771271,16.552158 242.617279,15.104576 
	C238.709824,13.311168 234.590591,12.279439 231.180176,14.622847 
	C228.217133,16.658829 225.238831,19.974783 224.287521,23.302597 
	C223.130264,27.350897 226.846268,30.012135 230.379471,31.713108 
	C232.985840,32.967888 235.683029,34.098915 238.440628,34.963242 
	C249.200043,38.335621 258.959320,42.979614 264.000000,54.000000 
	C264.000000,59.354931 264.000000,64.709862 264.000000,70.532394 
z"/>
<path fill="#253B74" opacity="1.000000" stroke="none" 
	d="
M117.000870,74.166656 
	C117.447250,74.118553 117.893639,74.070457 118.729485,74.409798 
	C122.023750,74.198303 124.928543,73.599380 127.833344,73.000450 
	C129.884094,75.197830 131.934845,77.395203 133.985596,79.592575 
	C131.452637,81.134285 128.984924,82.797813 126.375000,84.195847 
	C116.913414,89.264046 106.932060,89.206932 96.949928,86.416306 
	C80.842682,81.913315 70.894989,71.011879 66.642403,55.100655 
	C60.608025,32.522774 74.806099,6.559391 99.860306,1.363333 
	C105.688042,1.000000 111.376083,1.000000 117.532059,1.000001 
	C123.742455,3.483758 129.484909,5.967515 135.585648,8.606242 
	C132.470444,12.017122 130.460052,14.737953 127.901878,16.768747 
	C126.848564,17.604921 124.295799,17.573757 122.972481,16.885126 
	C113.235771,11.818335 103.611626,12.181454 94.235641,17.411442 
	C87.860329,20.967638 83.247459,26.397604 80.390923,33.163872 
	C76.496490,42.388630 75.970932,51.949379 81.927727,60.120434 
	C86.664902,66.618515 92.203728,73.383942 100.969070,74.904785 
	C105.222420,75.642769 109.711113,75.024338 114.599640,75.389969 
	C115.573250,75.980537 116.040482,76.201111 116.507721,76.421677 
	C116.672112,75.670006 116.836494,74.918335 117.000870,74.166656 
z"/>
<path fill="#FFFFFF" opacity="1.000000" stroke="none" 
	d="
M264.000000,53.531342 
	C258.959320,42.979614 249.200043,38.335621 238.440628,34.963242 
	C235.683029,34.098915 232.985840,32.967888 230.379471,31.713108 
	C226.846268,30.012135 223.130264,27.350897 224.287521,23.302597 
	C225.238831,19.974783 228.217133,16.658829 231.180176,14.622847 
	C234.590591,12.279439 238.709824,13.311168 242.617279,15.104576 
	C245.771271,16.552158 249.349167,17.752064 252.744598,17.766703 
	C255.119339,17.776941 257.503510,15.602787 259.883453,14.404251 
	C258.827576,12.676147 258.169128,10.349201 256.639923,9.334321 
	C252.368378,6.499460 247.736389,4.207744 243.123337,1.350822 
	C249.958359,1.000000 256.916718,1.000000 264.000000,1.000000 
	C264.000000,18.354053 264.000000,35.708370 264.000000,53.531342 
z"/>
<path fill="#253B74" opacity="1.000000" stroke="none" 
	d="
M1.000001,100.333336 
	C2.313680,99.514679 3.856378,99.319664 4.902123,98.494705 
	C9.923609,94.533394 15.142537,96.192017 17.843737,99.345711 
	C21.120724,103.171646 20.947081,108.186584 16.955406,111.471100 
	C13.113571,114.632324 9.278181,115.078674 4.451177,110.955566 
	C3.605866,110.233528 2.639041,109.653755 1.364169,109.004135 
	C1.000000,108.555557 1.000000,108.111107 1.357903,107.204918 
	C1.477205,105.162117 1.238602,103.581055 1.000000,102.000000 
	C1.000000,101.555557 1.000000,101.111107 1.000001,100.333336 
M16.472782,106.023178 
	C15.707553,104.255417 15.353625,102.072632 14.083719,100.814117 
	C12.016902,98.765846 7.365632,100.124870 5.631176,102.885834 
	C3.634011,106.064987 5.881575,108.214073 8.058619,109.322937 
	C11.146513,110.895737 14.466145,110.786133 16.472782,106.023178 
z"/>
<path fill="#253B74" opacity="1.000000" stroke="none" 
	d="
M250.437500,118.000000 
	C249.335068,115.060745 248.524658,112.145386 248.037064,109.177002 
	C247.165375,103.870453 248.893478,102.011940 254.417053,102.000420 
	C255.735016,101.997673 257.052979,102.000008 259.732086,102.000008 
	C258.868073,107.303848 258.058136,112.275635 257.124115,117.623711 
	C254.958328,118.000000 252.916672,118.000000 250.437500,118.000000 
z"/>
<path fill="#FFFFFF" opacity="1.000000" stroke="none" 
	d="
M1.000000,102.416664 
	C1.238602,103.581055 1.477205,105.162117 1.357903,106.871582 
	C1.000000,105.611107 1.000000,104.222221 1.000000,102.416664 
z"/>
<path fill="#253B74" opacity="1.000000" stroke="none" 
	d="
M162.003662,107.913116 
	C163.330093,101.825172 163.650085,101.674843 174.732834,102.237915 
	C173.857849,106.029503 174.133759,110.807083 171.885956,113.012909 
	C169.268616,115.581345 163.577744,112.287842 162.003662,107.913116 
z"/>
<path fill="#253B74" opacity="1.000000" stroke="none" 
	d="
M234.997284,107.330399 
	C234.298843,103.442871 232.903885,105.134796 232.248108,106.722893 
	C231.718613,108.005173 232.258698,109.693665 231.911362,111.099953 
	C231.703979,111.939590 230.700424,112.582588 229.224426,114.254570 
	C229.224426,109.340034 229.224426,105.937531 229.224426,102.547203 
	C238.347336,101.067665 239.206528,101.935081 238.908493,112.210678 
	C235.028442,113.151260 235.028442,113.151260 234.997284,107.330399 
z"/>
<path fill="#253B74" opacity="1.000000" stroke="none" 
	d="
M29.005123,104.218552 
	C31.273132,103.180641 33.627789,101.969887 35.766373,102.274757 
	C37.016979,102.453049 38.369804,104.919464 38.862564,106.595810 
	C39.396313,108.411606 38.983498,110.505638 38.983498,112.730232 
	C37.630211,112.730232 36.560471,112.730232 35.181263,112.730232 
	C35.069454,110.274513 34.958298,107.833176 34.847141,105.391830 
	C34.385414,105.244026 33.923691,105.096222 33.461964,104.948425 
	C32.974335,106.718193 32.543411,108.506409 31.976311,110.250343 
	C31.670670,111.190247 31.131863,112.054321 30.698248,112.952606 
	C30.132395,112.027695 29.221724,111.153748 29.075876,110.166771 
	C28.810963,108.374054 29.000914,106.514114 29.005123,104.218552 
z"/>
<path fill="#253B74" opacity="1.000000" stroke="none" 
	d="
M97.027878,109.942245 
	C95.701324,108.594597 94.374771,107.246948 93.048233,105.899307 
	C95.095932,104.599785 96.991982,102.784012 99.228447,102.127068 
	C102.250778,101.239296 103.335762,103.405396 103.032814,106.137108 
	C102.765816,108.544563 107.023468,113.336548 99.867416,111.684265 
	C99.871590,110.728790 99.936501,110.447723 100.296494,109.996277 
	C99.374374,109.899155 98.157166,109.972412 96.963493,110.021133 
	C96.987030,109.996605 97.027878,109.942245 97.027878,109.942245 
z"/>
<path fill="#253B74" opacity="1.000000" stroke="none" 
	d="
M199.933182,102.000992 
	C206.533051,102.496948 207.094971,103.698456 205.459137,112.838936 
	C204.986954,112.974380 204.514771,113.109833 204.042572,113.245277 
	C203.511002,110.566963 202.979431,107.888649 202.447861,105.210335 
	C202.086380,105.087296 201.724899,104.964264 201.363434,104.841225 
	C200.499939,107.680252 199.636459,110.519279 198.772980,113.358307 
	C198.184143,113.187904 197.595291,113.017509 197.006454,112.847107 
	C197.006454,109.913475 196.841049,106.964005 197.119446,104.057030 
	C197.191589,103.303596 198.653046,102.683228 199.933182,102.000992 
z"/>
<path fill="#253B74" opacity="1.000000" stroke="none" 
	d="
M77.994064,110.906357 
	C77.368149,111.880424 76.746971,112.408737 76.125786,112.937042 
	C75.752708,112.329567 75.081512,111.733681 75.057373,111.112633 
	C74.943420,108.180916 75.006577,105.242302 75.006577,102.054710 
	C78.727394,102.230316 82.958969,100.571121 83.789833,105.477264 
	C84.181816,107.791878 85.589005,111.415817 81.318169,113.789406 
	C81.095901,110.326149 80.931236,107.760345 80.766563,105.194542 
	C80.283455,105.085526 79.800339,104.976509 79.317230,104.867500 
	C78.877754,106.731865 78.438286,108.596230 77.994064,110.906357 
z"/>
<path fill="#253B74" opacity="1.000000" stroke="none" 
	d="
M135.000000,106.041916 
	C135.000000,108.620422 135.000000,110.732094 135.000000,112.843758 
	C130.028366,109.644211 133.318283,104.819717 131.344391,100.608986 
	C130.525177,100.093498 129.107635,99.201538 127.690086,98.309578 
	C127.860954,97.967529 128.031815,97.625488 128.202682,97.283447 
	C131.425934,97.283447 134.649185,97.283447 137.459290,97.283447 
	C136.604614,100.165039 135.802307,102.870056 135.000000,106.041916 
z"/>
<path fill="#253B74" opacity="1.000000" stroke="none" 
	d="
M52.000000,103.088043 
	C52.000000,106.525558 52.000000,109.488281 52.000000,112.450996 
	C51.611828,112.784431 51.223652,113.117867 50.835480,113.451302 
	C49.891029,112.432632 48.211903,111.468414 48.131672,110.385704 
	C47.815624,106.120689 48.002129,101.818443 48.002129,97.562859 
	C51.984348,97.191917 51.984348,97.191917 52.000000,103.088043 
z"/>
<path fill="#253B74" opacity="1.000000" stroke="none" 
	d="
M147.324493,102.502655 
	C149.570175,102.129189 151.559280,102.129189 153.177216,102.129189 
	C151.536545,105.881393 149.928238,109.559586 148.319916,113.237785 
	C147.902588,113.079376 147.485245,112.920967 147.067902,112.762558 
	C147.067902,109.467079 147.067902,106.171608 147.324493,102.502655 
z"/>
<path fill="#253B74" opacity="1.000000" stroke="none" 
	d="
M184.010101,103.633385 
	C184.421219,102.331207 184.824173,101.455292 185.244598,100.541405 
	C188.149231,104.990532 187.746979,111.743767 184.001923,113.026741 
	C184.001923,109.916313 184.001923,106.987984 184.010101,103.633385 
z"/>
<path fill="#253B74" opacity="1.000000" stroke="none" 
	d="
M62.000004,108.114212 
	C62.213428,105.851181 62.426853,104.032112 62.640282,102.213043 
	C63.139832,102.211212 63.639381,102.209381 64.138931,102.207558 
	C64.425735,104.806396 64.873863,107.402596 64.916443,110.005432 
	C64.932487,110.986008 64.009216,111.981956 63.514156,112.970894 
	C63.009663,111.992569 62.445293,111.038788 62.029343,110.024162 
	C61.856426,109.602386 62.000225,109.050758 62.000004,108.114212 
z"/>
<path fill="#253B74" opacity="1.000000" stroke="none" 
	d="
M216.116058,104.737823 
	C216.834610,104.106865 217.459137,103.753433 218.087433,103.746620 
	C218.356567,103.743706 218.874847,104.466400 218.867981,104.852074 
	C218.821503,107.463486 218.690308,110.075142 218.464615,112.676155 
	C218.453888,112.799843 217.290451,112.823517 216.663818,112.893768 
	C216.450394,110.314423 216.236969,107.735077 216.116058,104.737823 
z"/>
<path fill="#253B74" opacity="1.000000" stroke="none" 
	d="
M127.903091,72.655457 
	C124.928543,73.599380 122.023750,74.198303 119.060387,74.481949 
	C120.994751,73.111633 122.914513,71.846397 125.019608,71.113655 
	C125.773781,70.851128 126.975418,71.874161 127.903091,72.655457 
z"/>
<path fill="#253B74" opacity="1.000000" stroke="none" 
	d="
M116.705620,74.147919 
	C116.836494,74.918335 116.672112,75.670006 116.507721,76.421677 
	C116.040482,76.201111 115.573250,75.980537 115.053879,75.463310 
	C115.471283,74.820831 115.940819,74.475014 116.705620,74.147919 
z"/>
<path fill="#253B74" opacity="1.000000" stroke="none" 
	d="
M100.001411,110.166656 
	C99.936501,110.447723 99.871590,110.728790 99.652786,111.415176 
	C98.717644,111.415680 97.936378,111.010864 97.091499,110.274139 
	C97.027878,109.942245 96.987030,109.996605 97.347549,110.001160 
	C98.472519,110.059372 99.236961,110.113014 100.001411,110.166656 
z"/>
<path fill="#FFFFFF" opacity="1.000000" stroke="none" 
	d="
M39.299324,50.133968 
	C50.166321,54.069450 53.444687,62.819061 46.951450,70.501251 
	C45.173904,72.604279 42.078300,74.622772 39.462273,74.796814 
	C31.219818,75.345146 22.917850,74.998909 14.320150,74.998909 
	C14.320150,66.739098 14.320150,58.698009 14.320150,50.025818 
	C22.426931,50.025818 30.652191,50.025818 39.299324,50.133968 
z"/>
<path fill="#FFFFFF" opacity="1.000000" stroke="none" 
	d="
M45.891323,21.738953 
	C46.355267,27.051165 46.199829,31.804453 41.529011,34.903286 
	C40.214520,35.775379 38.687641,36.860855 37.233215,36.899097 
	C29.643854,37.098656 22.046444,36.992195 14.229537,36.992195 
	C14.229537,29.213228 14.229537,21.837444 14.229537,14.006506 
	C21.989435,14.006506 29.676790,13.299409 37.119720,14.340211 
	C40.278847,14.781976 42.925388,18.889296 45.891323,21.738953 
z"/>
<path fill="#FFFFFF" opacity="1.000000" stroke="none" 
	d="
M177.793549,15.939829 
	C187.015747,19.790703 193.110397,26.317867 195.892670,35.357368 
	C200.475983,50.248409 193.333817,67.350266 177.681473,73.136147 
	C160.224609,79.589066 142.593384,71.275475 136.889496,53.756481 
	C133.337021,42.845398 135.833771,32.979984 143.049591,24.655001 
	C151.057083,15.416646 161.408524,11.738720 173.653152,14.873658 
	C174.905411,15.194270 176.156967,15.517594 177.793549,15.939829 
z"/>
<path fill="#FFFFFF" opacity="1.000000" stroke="none" 
	d="
M16.260227,106.345261 
	C14.466145,110.786133 11.146513,110.895737 8.058619,109.322937 
	C5.881575,108.214073 3.634011,106.064987 5.631176,102.885834 
	C7.365632,100.124870 12.016902,98.765846 14.083719,100.814117 
	C15.353625,102.072632 15.707553,104.255417 16.260227,106.345261 
z"/>
<path fill="#FFFFFF" opacity="1.000000" stroke="none" 
	d="
M100.296494,109.996277 
	C99.236961,110.113014 98.472519,110.059372 97.324013,110.025696 
	C98.157166,109.972412 99.374374,109.899155 100.296494,109.996277 
z"/>
</svg>